<mxfile host="app.diagrams.net" agent="Mozilla/5.0 (Windows NT 10.0; Win64; x64) AppleWebKit/537.36 (KHTML, like Gecko) Chrome/128.0.0.0 Safari/537.36 Edg/128.0.0.0" version="24.7.14">
  <diagram name="PÃ¡gina-1" id="26rb9MkGMp8DTySTYEg2">
    <mxGraphModel dx="2314" dy="1917" grid="1" gridSize="10" guides="1" tooltips="1" connect="1" arrows="1" fold="1" page="1" pageScale="1" pageWidth="827" pageHeight="1169" math="0" shadow="0">
      <root>
        <mxCell id="0" />
        <mxCell id="1" parent="0" />
        <mxCell id="8tDK-zrip75NB9bkc1YN-53" value="" style="whiteSpace=wrap;html=1;aspect=fixed;" parent="1" vertex="1">
          <mxGeometry x="-70" y="810" width="730" height="730" as="geometry" />
        </mxCell>
        <mxCell id="8tDK-zrip75NB9bkc1YN-13" value="" style="whiteSpace=wrap;html=1;aspect=fixed;" parent="1" vertex="1">
          <mxGeometry x="-190" y="-530" width="1215" height="1215" as="geometry" />
        </mxCell>
        <mxCell id="8tDK-zrip75NB9bkc1YN-26" style="edgeStyle=orthogonalEdgeStyle;rounded=0;orthogonalLoop=1;jettySize=auto;html=1;" parent="1" edge="1">
          <mxGeometry relative="1" as="geometry">
            <mxPoint x="478.75" y="239.5" as="sourcePoint" />
            <mxPoint x="246.25" y="240" as="targetPoint" />
          </mxGeometry>
        </mxCell>
        <mxCell id="8tDK-zrip75NB9bkc1YN-1" value="" style="shape=datastore;whiteSpace=wrap;html=1;" parent="1" vertex="1">
          <mxGeometry x="502.5" y="210" width="60" height="60" as="geometry" />
        </mxCell>
        <mxCell id="8tDK-zrip75NB9bkc1YN-2" value="Redis" style="text;strokeColor=none;align=center;fillColor=none;html=1;verticalAlign=middle;whiteSpace=wrap;rounded=0;" parent="1" vertex="1">
          <mxGeometry x="487.5" y="205" width="90" height="70" as="geometry" />
        </mxCell>
        <mxCell id="8tDK-zrip75NB9bkc1YN-29" value="" style="edgeStyle=orthogonalEdgeStyle;rounded=0;orthogonalLoop=1;jettySize=auto;html=1;" parent="1" source="8tDK-zrip75NB9bkc1YN-4" target="8tDK-zrip75NB9bkc1YN-28" edge="1">
          <mxGeometry relative="1" as="geometry" />
        </mxCell>
        <mxCell id="8tDK-zrip75NB9bkc1YN-50" style="edgeStyle=orthogonalEdgeStyle;rounded=0;orthogonalLoop=1;jettySize=auto;html=1;" parent="1" edge="1">
          <mxGeometry relative="1" as="geometry">
            <mxPoint x="200" y="205" as="sourcePoint" />
            <mxPoint x="533" y="210" as="targetPoint" />
            <Array as="points">
              <mxPoint x="200" y="120" />
              <mxPoint x="533" y="120" />
            </Array>
          </mxGeometry>
        </mxCell>
        <mxCell id="8tDK-zrip75NB9bkc1YN-52" style="edgeStyle=orthogonalEdgeStyle;rounded=0;orthogonalLoop=1;jettySize=auto;html=1;" parent="1" source="8tDK-zrip75NB9bkc1YN-4" target="8tDK-zrip75NB9bkc1YN-22" edge="1">
          <mxGeometry relative="1" as="geometry">
            <Array as="points">
              <mxPoint x="200" y="120" />
              <mxPoint x="590" y="120" />
              <mxPoint x="590" y="400" />
            </Array>
          </mxGeometry>
        </mxCell>
        <mxCell id="8tDK-zrip75NB9bkc1YN-4" value="" style="image;html=1;image=img/lib/clip_art/computers/Server_128x128.png" parent="1" vertex="1">
          <mxGeometry x="160" y="200" width="80" height="80" as="geometry" />
        </mxCell>
        <mxCell id="8tDK-zrip75NB9bkc1YN-6" value="Back&lt;div&gt;&lt;br&gt;&lt;/div&gt;" style="text;strokeColor=none;align=center;fillColor=none;html=1;verticalAlign=middle;whiteSpace=wrap;rounded=0;" parent="1" vertex="1">
          <mxGeometry x="180" y="240" width="20" as="geometry" />
        </mxCell>
        <mxCell id="8tDK-zrip75NB9bkc1YN-7" value="" style="shape=datastore;whiteSpace=wrap;html=1;" parent="1" vertex="1">
          <mxGeometry x="165" y="565" width="70" height="60" as="geometry" />
        </mxCell>
        <mxCell id="8tDK-zrip75NB9bkc1YN-9" value="FIle DB" style="text;strokeColor=none;align=center;fillColor=none;html=1;verticalAlign=middle;whiteSpace=wrap;rounded=0;" parent="1" vertex="1">
          <mxGeometry x="170" y="595" width="60" height="30" as="geometry" />
        </mxCell>
        <mxCell id="8tDK-zrip75NB9bkc1YN-14" value="CASO 1&amp;nbsp;&lt;div&gt;&lt;br&gt;&lt;/div&gt;" style="text;strokeColor=none;align=center;fillColor=none;html=1;verticalAlign=middle;whiteSpace=wrap;rounded=0;" parent="1" vertex="1">
          <mxGeometry x="-5" y="-20" width="185" height="150" as="geometry" />
        </mxCell>
        <mxCell id="8tDK-zrip75NB9bkc1YN-20" style="edgeStyle=orthogonalEdgeStyle;rounded=0;orthogonalLoop=1;jettySize=auto;html=1;entryX=0.286;entryY=0.5;entryDx=0;entryDy=0;entryPerimeter=0;" parent="1" edge="1">
          <mxGeometry relative="1" as="geometry">
            <mxPoint x="247.84" y="260.5" as="sourcePoint" />
            <mxPoint x="487.5000000000001" y="260" as="targetPoint" />
            <Array as="points">
              <mxPoint x="260" y="260.5" />
              <mxPoint x="260" y="261.5" />
              <mxPoint x="308" y="261.5" />
              <mxPoint x="308" y="260.5" />
            </Array>
          </mxGeometry>
        </mxCell>
        <mxCell id="8tDK-zrip75NB9bkc1YN-22" value="" style="verticalLabelPosition=bottom;sketch=0;aspect=fixed;html=1;verticalAlign=top;strokeColor=none;align=center;outlineConnect=0;shape=mxgraph.citrix.proxy_server;" parent="1" vertex="1">
          <mxGeometry x="509.75" y="355" width="76.5" height="90" as="geometry" />
        </mxCell>
        <mxCell id="8tDK-zrip75NB9bkc1YN-23" value="nginx" style="text;strokeColor=none;align=center;fillColor=none;html=1;verticalAlign=middle;whiteSpace=wrap;rounded=0;" parent="1" vertex="1">
          <mxGeometry x="478.75" y="300" width="107.5" height="50" as="geometry" />
        </mxCell>
        <mxCell id="8tDK-zrip75NB9bkc1YN-24" value="IP CONULT" style="text;strokeColor=none;align=center;fillColor=none;html=1;verticalAlign=middle;whiteSpace=wrap;rounded=0;" parent="1" vertex="1">
          <mxGeometry x="320" y="270" width="100" height="30" as="geometry" />
        </mxCell>
        <mxCell id="8tDK-zrip75NB9bkc1YN-27" value="RESPONSE REDIS" style="text;strokeColor=none;align=center;fillColor=none;html=1;verticalAlign=middle;whiteSpace=wrap;rounded=0;" parent="1" vertex="1">
          <mxGeometry x="340" y="200" width="60" height="30" as="geometry" />
        </mxCell>
        <mxCell id="8tDK-zrip75NB9bkc1YN-31" style="edgeStyle=orthogonalEdgeStyle;rounded=0;orthogonalLoop=1;jettySize=auto;html=1;" parent="1" source="8tDK-zrip75NB9bkc1YN-28" target="8tDK-zrip75NB9bkc1YN-22" edge="1">
          <mxGeometry relative="1" as="geometry" />
        </mxCell>
        <mxCell id="8tDK-zrip75NB9bkc1YN-28" value="" style="rhombus;whiteSpace=wrap;html=1;verticalAlign=top;labelBackgroundColor=default;" parent="1" vertex="1">
          <mxGeometry x="130" y="335" width="140" height="130" as="geometry" />
        </mxCell>
        <mxCell id="8tDK-zrip75NB9bkc1YN-32" value="DATA IN REDIS NOT NULL" style="text;strokeColor=none;align=center;fillColor=none;html=1;verticalAlign=middle;whiteSpace=wrap;rounded=0;" parent="1" vertex="1">
          <mxGeometry x="170" y="385" width="60" height="30" as="geometry" />
        </mxCell>
        <mxCell id="8tDK-zrip75NB9bkc1YN-33" value="SI" style="text;strokeColor=none;align=center;fillColor=none;html=1;verticalAlign=middle;whiteSpace=wrap;rounded=0;" parent="1" vertex="1">
          <mxGeometry x="250" y="370" width="60" height="40" as="geometry" />
        </mxCell>
        <mxCell id="8tDK-zrip75NB9bkc1YN-37" value="NOT" style="text;strokeColor=none;align=center;fillColor=none;html=1;verticalAlign=middle;whiteSpace=wrap;rounded=0;" parent="1" vertex="1">
          <mxGeometry x="140" y="490" width="60" height="30" as="geometry" />
        </mxCell>
        <mxCell id="8tDK-zrip75NB9bkc1YN-38" style="edgeStyle=orthogonalEdgeStyle;rounded=0;orthogonalLoop=1;jettySize=auto;html=1;" parent="1" edge="1">
          <mxGeometry relative="1" as="geometry">
            <mxPoint x="199.86" y="470" as="sourcePoint" />
            <mxPoint x="199.5" y="560" as="targetPoint" />
            <Array as="points">
              <mxPoint x="199.5" y="540" />
              <mxPoint x="199.5" y="540" />
            </Array>
          </mxGeometry>
        </mxCell>
        <mxCell id="8tDK-zrip75NB9bkc1YN-45" style="edgeStyle=orthogonalEdgeStyle;rounded=0;orthogonalLoop=1;jettySize=auto;html=1;entryX=0;entryY=0.5;entryDx=0;entryDy=0;" parent="1" source="8tDK-zrip75NB9bkc1YN-7" target="8tDK-zrip75NB9bkc1YN-4" edge="1">
          <mxGeometry relative="1" as="geometry">
            <Array as="points">
              <mxPoint x="30" y="600" />
              <mxPoint x="30" y="240" />
            </Array>
          </mxGeometry>
        </mxCell>
        <mxCell id="8tDK-zrip75NB9bkc1YN-46" value="DATA&lt;div&gt;&lt;br&gt;&lt;/div&gt;" style="text;strokeColor=none;align=center;fillColor=none;html=1;verticalAlign=middle;whiteSpace=wrap;rounded=0;" parent="1" vertex="1">
          <mxGeometry x="70" y="580" width="60" height="30" as="geometry" />
        </mxCell>
        <mxCell id="8tDK-zrip75NB9bkc1YN-49" style="edgeStyle=orthogonalEdgeStyle;rounded=0;orthogonalLoop=1;jettySize=auto;html=1;exitX=0;exitY=0;exitDx=0;exitDy=0;" parent="1" source="8tDK-zrip75NB9bkc1YN-6" target="8tDK-zrip75NB9bkc1YN-6" edge="1">
          <mxGeometry relative="1" as="geometry" />
        </mxCell>
        <mxCell id="8tDK-zrip75NB9bkc1YN-51" value="SET DATA IN REDIS AND SEND NGINX" style="text;strokeColor=none;align=center;fillColor=none;html=1;verticalAlign=middle;whiteSpace=wrap;rounded=0;" parent="1" vertex="1">
          <mxGeometry x="300" y="80" width="120" height="30" as="geometry" />
        </mxCell>
        <mxCell id="8tDK-zrip75NB9bkc1YN-80" value="" style="image;html=1;image=img/lib/clip_art/computers/Server_128x128.png" parent="1" vertex="1">
          <mxGeometry x="-10" y="-360" width="80" height="80" as="geometry" />
        </mxCell>
        <mxCell id="8tDK-zrip75NB9bkc1YN-81" value="back" style="text;strokeColor=none;align=center;fillColor=none;html=1;verticalAlign=middle;whiteSpace=wrap;rounded=0;" parent="1" vertex="1">
          <mxGeometry x="-22.5" y="-340" width="95" height="40" as="geometry" />
        </mxCell>
        <mxCell id="8tDK-zrip75NB9bkc1YN-82" value="Starting server" style="text;strokeColor=none;align=center;fillColor=none;html=1;verticalAlign=middle;whiteSpace=wrap;rounded=0;" parent="1" vertex="1">
          <mxGeometry x="-70" y="-460" width="190" height="100" as="geometry" />
        </mxCell>
      </root>
    </mxGraphModel>
  </diagram>
</mxfile>
